<svg width="1512" height="83" viewBox="0 0 1512 83" fill="none" xmlns="http://www.w3.org/2000/svg">
<path d="M-0.0149536 1.5L224.571 41.5621L492.498 0.5L764.858 41.5L1064.8 0L1297.26 41.5L1510.52 1V41L1297.26 82.5L1064.8 41.5L764.858 82.5L492.498 41L224.571 81.5L-0.0149536 41V1.5Z" fill="white"/>
<path d="M-1 1L224.571 42L492.498 1L764.858 42L1064.8 0.5L1297.26 42L1511.02 1" stroke="black"/>
<path d="M-1 31L224.571 72L492.498 31L764.858 72L1064.8 30.5L1297.26 72L1511.02 31" stroke="black"/>
<path d="M-1 41L224.571 82L492.498 41L764.858 82L1064.8 40.5L1297.26 82L1511.02 41" stroke="black"/>
<path d="M-1 21L224.571 62L492.498 21L764.858 62L1064.8 20.5L1297.26 62L1511.02 21" stroke="black"/>
<path d="M-0.0149536 11L225.556 52L493.483 11L765.843 52L1065.78 10.5L1298.25 52L1512 11" stroke="black"/>
</svg>
