<svg width="165" height="127" viewBox="0 0 165 127" fill="none" xmlns="http://www.w3.org/2000/svg">
<path d="M36.341 65.2579C38.3099 63.6944 39.2075 62.9705 39.0338 63.0863C44.7088 58.3957 49.1678 54.5447 52.4107 51.5335C55.7116 48.5222 58.4912 45.3661 60.7496 42.0653C63.0081 38.7645 64.1373 35.5506 64.1373 32.4235C64.1373 30.0492 63.5872 28.1961 62.4869 26.8642C61.3866 25.5323 59.7362 24.8663 57.5357 24.8663C55.3352 24.8663 53.5979 25.706 52.3239 27.3854C51.1078 29.0068 50.4997 31.3232 50.4997 34.3345H36.1673C36.2831 29.4122 37.3254 25.3007 39.2943 21.9998C41.3212 18.699 43.956 16.2668 47.1989 14.7033C50.4997 13.1398 54.148 12.358 58.1437 12.358C65.0349 12.358 70.2178 14.1242 73.6923 17.6567C77.2248 21.1891 78.991 25.7929 78.991 31.468C78.991 37.6642 76.8773 43.4262 72.65 48.7538C68.4226 54.0235 63.0371 59.1774 56.4933 64.2155H79.9465V76.2896H36.341V65.2579Z" fill="white"/>
<path d="M62.7371 44.3744C62.7371 38.1166 64.091 32.5508 66.7987 27.677C69.5064 22.7429 73.2671 18.9221 78.0808 16.2144C82.9546 13.4465 88.4603 12.0625 94.5977 12.0625C102.119 12.0625 108.557 14.0482 113.913 18.0195C119.268 21.9908 122.848 27.4062 124.653 34.2657H107.685C106.421 31.6182 104.616 29.6024 102.27 28.2185C99.9831 26.8346 97.3656 26.1426 94.4172 26.1426C89.6637 26.1426 85.8128 27.7973 82.8644 31.1067C79.916 34.4161 78.4418 38.8387 78.4418 44.3744C78.4418 49.9102 79.916 54.3327 82.8644 57.6422C85.8128 60.9516 89.6637 62.6063 94.4172 62.6063C97.3656 62.6063 99.9831 61.9143 102.27 60.5304C104.616 59.1464 106.421 57.1307 107.685 54.4832H124.653C122.848 61.3427 119.268 66.7581 113.913 70.7294C108.557 74.6405 102.119 76.5961 94.5977 76.5961C88.4603 76.5961 82.9546 75.2422 78.0808 72.5345C73.2671 69.7666 69.5064 65.9458 66.7987 61.0719C64.091 56.1981 62.7371 50.6322 62.7371 44.3744Z" fill="#6100FF"/>
<path d="M22.4453 104.009C22.4453 105.473 22.1093 106.817 21.4373 108.041C20.7653 109.241 19.7333 110.213 18.3413 110.957C16.9493 111.701 15.2213 112.073 13.1573 112.073H9.34131V121.145H3.18531V95.8728H13.1573C15.1733 95.8728 16.8773 96.2208 18.2693 96.9168C19.6613 97.6128 20.7053 98.5728 21.4013 99.7968C22.0973 101.021 22.4453 102.425 22.4453 104.009ZM12.6893 107.177C13.8653 107.177 14.7413 106.901 15.3173 106.349C15.8933 105.797 16.1813 105.017 16.1813 104.009C16.1813 103.001 15.8933 102.221 15.3173 101.669C14.7413 101.117 13.8653 100.841 12.6893 100.841H9.34131V107.177H12.6893ZM38.5382 121.145L33.2822 111.605H31.8062V121.145H25.6502V95.8728H35.9822C37.9742 95.8728 39.6662 96.2208 41.0582 96.9168C42.4742 97.6128 43.5302 98.5728 44.2262 99.7968C44.9222 100.997 45.2702 102.341 45.2702 103.829C45.2702 105.509 44.7902 107.009 43.8302 108.329C42.8942 109.649 41.5022 110.585 39.6542 111.137L45.4862 121.145H38.5382ZM31.8062 107.249H35.6222C36.7502 107.249 37.5902 106.973 38.1422 106.421C38.7182 105.869 39.0062 105.089 39.0062 104.081C39.0062 103.121 38.7182 102.365 38.1422 101.813C37.5902 101.261 36.7502 100.985 35.6222 100.985H31.8062V107.249ZM61.0865 121.397C58.7105 121.397 56.5265 120.845 54.5345 119.741C52.5665 118.637 50.9945 117.101 49.8185 115.133C48.6665 113.141 48.0905 110.909 48.0905 108.437C48.0905 105.965 48.6665 103.745 49.8185 101.777C50.9945 99.8088 52.5665 98.2728 54.5345 97.1688C56.5265 96.0648 58.7105 95.5128 61.0865 95.5128C63.4625 95.5128 65.6345 96.0648 67.6025 97.1688C69.5945 98.2728 71.1545 99.8088 72.2825 101.777C73.4345 103.745 74.0105 105.965 74.0105 108.437C74.0105 110.909 73.4345 113.141 72.2825 115.133C71.1305 117.101 69.5705 118.637 67.6025 119.741C65.6345 120.845 63.4625 121.397 61.0865 121.397ZM61.0865 115.781C63.1025 115.781 64.7105 115.109 65.9105 113.765C67.1345 112.421 67.7465 110.645 67.7465 108.437C67.7465 106.205 67.1345 104.429 65.9105 103.109C64.7105 101.765 63.1025 101.093 61.0865 101.093C59.0465 101.093 57.4145 101.753 56.1905 103.073C54.9905 104.393 54.3905 106.181 54.3905 108.437C54.3905 110.669 54.9905 112.457 56.1905 113.801C57.4145 115.121 59.0465 115.781 61.0865 115.781ZM93.2753 95.8728V113.081C93.2753 115.745 92.5193 117.797 91.0073 119.237C89.5193 120.677 87.5033 121.397 84.9593 121.397C82.2953 121.397 80.1593 120.641 78.5513 119.129C76.9433 117.617 76.1393 115.469 76.1393 112.685H82.2593C82.2593 113.741 82.4753 114.545 82.9073 115.097C83.3393 115.625 83.9633 115.889 84.7793 115.889C85.5233 115.889 86.0993 115.649 86.5073 115.169C86.9153 114.689 87.1193 113.993 87.1193 113.081V95.8728H93.2753ZM104.404 100.805V105.917H112.648V110.669H104.404V116.213H113.728V121.145H98.2478V95.8728H113.728V100.805H104.404ZM116.68 108.473C116.68 105.977 117.22 103.757 118.3 101.813C119.38 99.8448 120.88 98.3208 122.8 97.2408C124.744 96.1368 126.94 95.5848 129.388 95.5848C132.388 95.5848 134.956 96.3768 137.092 97.9608C139.228 99.5448 140.656 101.705 141.376 104.441H134.608C134.104 103.385 133.384 102.581 132.448 102.029C131.536 101.477 130.492 101.201 129.316 101.201C127.42 101.201 125.884 101.861 124.708 103.181C123.532 104.501 122.944 106.265 122.944 108.473C122.944 110.681 123.532 112.445 124.708 113.765C125.884 115.085 127.42 115.745 129.316 115.745C130.492 115.745 131.536 115.469 132.448 114.917C133.384 114.365 134.104 113.561 134.608 112.505H141.376C140.656 115.241 139.228 117.401 137.092 118.985C134.956 120.545 132.388 121.325 129.388 121.325C126.94 121.325 124.744 120.785 122.8 119.705C120.88 118.601 119.38 117.077 118.3 115.133C117.22 113.189 116.68 110.969 116.68 108.473ZM163.326 95.8728V100.805H156.63V121.145H150.474V100.805H143.778V95.8728H163.326Z" fill="white"/>
</svg>
