<svg width="90" height="86" viewBox="0 0 90 86" fill="none" xmlns="http://www.w3.org/2000/svg">
<rect width="89.1145" height="85.9407" rx="25" fill="black"/>
<path d="M12.4466 57.346C13.8686 56.2168 14.5169 55.694 14.3914 55.7777C18.4901 52.39 21.7105 49.6088 24.0526 47.434C26.4365 45.2592 28.444 42.9798 30.0751 40.5959C31.7062 38.212 32.5217 35.8908 32.5217 33.6323C32.5217 31.9176 32.1244 30.5793 31.3298 29.6173C30.5351 28.6554 29.3432 28.1744 27.7539 28.1744C26.1646 28.1744 24.9099 28.7809 23.9898 29.9937C23.1115 31.1648 22.6724 32.8377 22.6724 35.0125H12.3212C12.4048 31.4575 13.1576 28.4881 14.5796 26.1042C16.0434 23.7203 17.9464 21.9637 20.2885 20.8345C22.6724 19.7053 25.3072 19.1407 28.193 19.1407C33.17 19.1407 36.9131 20.4163 39.4225 22.9675C41.9737 25.5187 43.2493 28.8436 43.2493 32.9423C43.2493 37.4173 41.7228 41.5787 38.6697 45.4265C35.6166 49.2324 31.7271 52.9546 27.0011 56.5932H43.9394V65.3133H12.4466V57.346Z" fill="white"/>
<path d="M31.2656 42.0548C31.2656 37.5353 32.2434 33.5156 34.1989 29.9956C36.1545 26.4321 38.8706 23.6726 42.3471 21.717C45.8671 19.718 49.8434 18.7185 54.276 18.7185C59.7081 18.7185 64.358 20.1526 68.2256 23.0207C72.0933 25.8889 74.6789 29.8 75.9826 34.7541H63.7278C62.8152 32.842 61.5115 31.3862 59.8167 30.3867C58.1654 29.3872 56.275 28.8874 54.1456 28.8874C50.7125 28.8874 47.9313 30.0825 45.8019 32.4726C43.6725 34.8627 42.6078 38.0568 42.6078 42.0548C42.6078 46.0528 43.6725 49.2469 45.8019 51.637C47.9313 54.0272 50.7125 55.2222 54.1456 55.2222C56.275 55.2222 58.1654 54.7225 59.8167 53.723C61.5115 52.7235 62.8152 51.2677 63.7278 49.3556H75.9826C74.6789 54.3096 72.0933 58.2207 68.2256 61.0889C64.358 63.9136 59.7081 65.3259 54.276 65.3259C49.8434 65.3259 45.8671 64.3481 42.3471 62.3926C38.8706 60.3936 36.1545 57.6341 34.1989 54.1141C32.2434 50.5941 31.2656 46.5743 31.2656 42.0548Z" fill="#6100FF"/>
</svg>
