<svg width="70" height="66" viewBox="0 0 70 66" fill="none" xmlns="http://www.w3.org/2000/svg">
<path d="M2.44665 47.346C3.86863 46.2168 4.51689 45.694 4.39142 45.7777C8.49008 42.39 11.7105 39.6088 14.0526 37.434C16.4365 35.2592 18.444 32.9798 20.0751 30.5959C21.7062 28.212 22.5217 25.8908 22.5217 23.6323C22.5217 21.9176 22.1244 20.5793 21.3298 19.6173C20.5351 18.6554 19.3432 18.1744 17.7539 18.1744C16.1646 18.1744 14.9099 18.7809 13.9898 19.9937C13.1115 21.1648 12.6724 22.8377 12.6724 25.0125H2.32118C2.40483 21.4575 3.15764 18.4881 4.57963 16.1042C6.04343 13.7203 7.94638 11.9637 10.2885 10.8345C12.6724 9.70526 15.3072 9.14065 18.193 9.14065C23.17 9.14065 26.9131 10.4163 29.4225 12.9675C31.9737 15.5187 33.2493 18.8436 33.2493 22.9423C33.2493 27.4173 31.7228 31.5787 28.6697 35.4265C25.6166 39.2324 21.7271 42.9546 17.0011 46.5932H33.9394V55.3133H2.44665V47.346Z" fill="white"/>
<path d="M21.2656 32.0548C21.2656 27.5353 22.2434 23.5156 24.1989 19.9956C26.1545 16.4321 28.8706 13.6726 32.3471 11.717C35.8671 9.71803 39.8434 8.71852 44.276 8.71852C49.7081 8.71852 54.358 10.1526 58.2256 13.0207C62.0933 15.8889 64.6789 19.8 65.9826 24.7541H53.7278C52.8152 22.842 51.5115 21.3862 49.8167 20.3867C48.1654 19.3872 46.275 18.8874 44.1456 18.8874C40.7125 18.8874 37.9313 20.0825 35.8019 22.4726C33.6725 24.8627 32.6078 28.0568 32.6078 32.0548C32.6078 36.0528 33.6725 39.2469 35.8019 41.637C37.9313 44.0272 40.7125 45.2222 44.1456 45.2222C46.275 45.2222 48.1654 44.7225 49.8167 43.723C51.5115 42.7235 52.8152 41.2677 53.7278 39.3556H65.9826C64.6789 44.3096 62.0933 48.2207 58.2256 51.0889C54.358 53.9136 49.7081 55.3259 44.276 55.3259C39.8434 55.3259 35.8671 54.3481 32.3471 52.3926C28.8706 50.3936 26.1545 47.6341 24.1989 44.1141C22.2434 40.5941 21.2656 36.5743 21.2656 32.0548Z" fill="#6100FF"/>
</svg>
