<svg width="175" height="169" viewBox="0 0 175 169" fill="none" xmlns="http://www.w3.org/2000/svg">
<path d="M87.5002 0L94.0388 42.9618L113.364 3.7752L106.536 46.6949L136.929 14.7653L117.341 53.8292L156.102 31.9938L125.495 63.7309L169.18 53.9299L130.273 75.5204L175 78.6242L131.25 88.1495L173.046 103.883L128.34 100.497L163.49 127.462L121.802 111.465L147.182 147.265L112.215 120.079L125.571 161.534L100.432 125.574L100.578 169L87.5002 127.462L74.4222 169L74.5684 125.574L49.4288 161.534L62.7858 120.079L27.8181 147.265L53.1991 111.465L11.5103 127.462L46.6601 100.497L1.95458 103.883L43.75 88.1495L0 78.6242L44.7274 75.5204L5.82013 53.9299L49.5052 63.7309L18.898 31.9938L57.6589 53.8292L38.0714 14.7653L68.4646 46.6949L61.6367 3.7752L80.9615 42.9618L87.5002 0Z" fill="#FF89C2"/>
</svg>
